<svg xmlns="http://www.w3.org/2000/svg" width="48" height="48"><g transform="translate(.002 4.35)"><rect width="48" height="48" x="-.002" y="-4.349" fill="#d3dbee" rx="10" ry="10"/><g fill="#1e51d2"><path d="M37.998 33.651h4v-22.76l-4 2.31M29.998 33.651h4v-18.14l-4 2.31M13.998 33.651h4V16.437l-4 2.31M5.998 33.651h4V21.058l-4 2.31"/><path d="m41.998 1.65-14.4 8.315-7.2-4.156-14.4 8.314v4.625l14.4-8.318 1.6.922V25.65h-.002v3.386c0 1.332-.206 2.368-.62 3.108-.416.74-.964 1.259-1.645 1.555a4.997 4.997 0 0 1-2.09.443c-.593 0-1.156-.044-1.69-.133a19.395 19.395 0 0 1-1.511-.31v3.373c.415.177.888.311 1.422.4.533.118 1.156.178 1.867.178 1.66 0 3.113-.326 4.357-.977 1.245-.622 2.207-1.598 2.89-2.93.68-1.302 1.022-2.975 1.022-5.017V13.663l1.6.921 14.4-8.306V1.65z"/></g></g></svg>
