<svg xmlns="http://www.w3.org/2000/svg" width="48" height="48"><g transform="translate(.002 4.35)"><rect width="48" height="48" x="-.002" y="-4.349" fill="#d3dbee" rx="0" ry="0"/><g fill="#1e51d2"><path d="M34.109 29.762h2.889V13.325l-2.889 1.668M28.332 29.762h2.889V16.661l-2.889 1.668M16.776 29.762h2.889V17.33l-2.889 1.668M10.998 29.762h2.889v-9.095l-2.889 1.668"/><path d="m36.998 6.65-10.4 6.005-5.2-3.001-10.4 6.005v3.34l10.4-6.008 1.156.666v10.327h-.001v2.446c0 .962-.15 1.71-.45 2.244-.299.535-.694.91-1.187 1.123-.47.214-.974.32-1.51.32a7.43 7.43 0 0 1-1.22-.096c-.385-.064-.749-.138-1.091-.224v2.436c.3.128.642.225 1.027.29.385.085.835.128 1.348.128 1.199 0 2.248-.235 3.147-.706.9-.449 1.594-1.154 2.087-2.116.492-.94.739-2.148.739-3.623v-10.88l1.155.665 10.4-5.999z"/></g></g></svg>
